<!DOCTYPE svg PUBLIC "-//W3C//DTD SVG 1.1//EN" "http://www.w3.org/Graphics/SVG/1.1/DTD/svg11.dtd">
<!-- Uploaded to: SVG Repo, www.svgrepo.com, Transformed by: SVG Repo Mixer Tools -->
<svg version="1.1" id="Layer_1" xmlns="http://www.w3.org/2000/svg" xmlns:xlink="http://www.w3.org/1999/xlink" viewBox="0 0 512.01 512.01" xml:space="preserve" width="800px" height="800px" fill="#000000">
<g id="SVGRepo_bgCarrier" stroke-width="0"/>
<g id="SVGRepo_tracerCarrier" stroke-linecap="round" stroke-linejoin="round"/>
<g id="SVGRepo_iconCarrier"> <circle style="fill:#f4fdfc;" cx="256.005" cy="256.005" r="256.005"/> <rect x="112.002" y="88.003" style="fill:#192233;" width="287.997" height="336.005"/> <rect x="112.002" y="64" style="fill:#f4fdfc;" width="287.997" height="24"/> <rect x="112.002" y="423.997" style="fill:#1E92D2;" width="287.997" height="24"/> <path style="fill:#f4fdfc;" d="M140,295.92l182.08-144.96l-7.84-9.92l34.24-5.04l-12.88,32.24l-7.84-9.92L146.72,303.68 C146.72,303.68,140.24,296,140,295.92z"/> <rect x="183.998" y="324.637" style="fill:#1E92D2;" width="24" height="39.92"/> <g> <rect x="144.003" y="344.56" style="fill:#f4fdfc;" width="24" height="19.923"/> <rect x="224.003" y="297.598" style="fill:#f4fdfc;" width="24" height="66.96"/> </g> <rect x="263.998" y="262.399" style="fill:#1E92D2;" width="24" height="102.163"/> <rect x="304.003" y="230.644" style="fill:#f4fdfc;" width="24" height="133.918"/> <rect x="343.998" y="187.758" style="fill:#1E92D2;" width="24" height="176.962"/> </g>
</svg>