<?xml version="1.0" standalone="no"?>
<svg xmlns:xlink="http://www.w3.org/1999/xlink" id="wave" style="transform:rotate(0deg); transition: 0.3s" viewBox="0 0 1440 350" version="1.1" xmlns="http://www.w3.org/2000/svg"><defs><linearGradient id="sw-gradient-0" x1="0" x2="0" y1="1" y2="0"><stop stop-color="rgba(17, 24, 39, 0.49)" offset="0%"/><stop stop-color="rgba(25, 34, 51, 0.74)" offset="100%"/></linearGradient></defs><path style="transform:translate(0, 0px); opacity:1" fill="url(#sw-gradient-0)" d="M0,140L48,157.5C96,175,192,210,288,186.7C384,163,480,82,576,70C672,58,768,117,864,157.5C960,198,1056,222,1152,245C1248,268,1344,292,1440,297.5C1536,303,1632,292,1728,285.8C1824,280,1920,280,2016,245C2112,210,2208,140,2304,128.3C2400,117,2496,163,2592,192.5C2688,222,2784,233,2880,210C2976,187,3072,128,3168,87.5C3264,47,3360,23,3456,35C3552,47,3648,93,3744,93.3C3840,93,3936,47,4032,52.5C4128,58,4224,117,4320,157.5C4416,198,4512,222,4608,215.8C4704,210,4800,175,4896,151.7C4992,128,5088,117,5184,140C5280,163,5376,222,5472,215.8C5568,210,5664,140,5760,145.8C5856,152,5952,233,6048,268.3C6144,303,6240,292,6336,285.8C6432,280,6528,280,6624,245C6720,210,6816,140,6864,105L6912,70L6912,350L6864,350C6816,350,6720,350,6624,350C6528,350,6432,350,6336,350C6240,350,6144,350,6048,350C5952,350,5856,350,5760,350C5664,350,5568,350,5472,350C5376,350,5280,350,5184,350C5088,350,4992,350,4896,350C4800,350,4704,350,4608,350C4512,350,4416,350,4320,350C4224,350,4128,350,4032,350C3936,350,3840,350,3744,350C3648,350,3552,350,3456,350C3360,350,3264,350,3168,350C3072,350,2976,350,2880,350C2784,350,2688,350,2592,350C2496,350,2400,350,2304,350C2208,350,2112,350,2016,350C1920,350,1824,350,1728,350C1632,350,1536,350,1440,350C1344,350,1248,350,1152,350C1056,350,960,350,864,350C768,350,672,350,576,350C480,350,384,350,288,350C192,350,96,350,48,350L0,350Z"/><defs><linearGradient id="sw-gradient-1" x1="0" x2="0" y1="1" y2="0"><stop stop-color="rgba(25, 34, 51, 0.46)" offset="0%"/><stop stop-color="rgba(30, 146, 210, 0.22)" offset="100%"/></linearGradient></defs><path style="transform:translate(0, 50px); opacity:0.9" fill="url(#sw-gradient-1)" d="M0,280L48,268.3C96,257,192,233,288,210C384,187,480,163,576,169.2C672,175,768,210,864,186.7C960,163,1056,82,1152,81.7C1248,82,1344,163,1440,192.5C1536,222,1632,198,1728,157.5C1824,117,1920,58,2016,35C2112,12,2208,23,2304,23.3C2400,23,2496,12,2592,52.5C2688,93,2784,187,2880,198.3C2976,210,3072,140,3168,122.5C3264,105,3360,140,3456,180.8C3552,222,3648,268,3744,280C3840,292,3936,268,4032,239.2C4128,210,4224,175,4320,175C4416,175,4512,210,4608,210C4704,210,4800,175,4896,157.5C4992,140,5088,140,5184,157.5C5280,175,5376,210,5472,210C5568,210,5664,175,5760,186.7C5856,198,5952,257,6048,239.2C6144,222,6240,128,6336,128.3C6432,128,6528,222,6624,262.5C6720,303,6816,292,6864,285.8L6912,280L6912,350L6864,350C6816,350,6720,350,6624,350C6528,350,6432,350,6336,350C6240,350,6144,350,6048,350C5952,350,5856,350,5760,350C5664,350,5568,350,5472,350C5376,350,5280,350,5184,350C5088,350,4992,350,4896,350C4800,350,4704,350,4608,350C4512,350,4416,350,4320,350C4224,350,4128,350,4032,350C3936,350,3840,350,3744,350C3648,350,3552,350,3456,350C3360,350,3264,350,3168,350C3072,350,2976,350,2880,350C2784,350,2688,350,2592,350C2496,350,2400,350,2304,350C2208,350,2112,350,2016,350C1920,350,1824,350,1728,350C1632,350,1536,350,1440,350C1344,350,1248,350,1152,350C1056,350,960,350,864,350C768,350,672,350,576,350C480,350,384,350,288,350C192,350,96,350,48,350L0,350Z"/></svg>