<svg width="1920" height="1080" viewBox="0 0 1920 1080" xmlns="http://www.w3.org/2000/svg"><path d="M1538,542.9999999999999C1536.8039906641818,619.7692149395302,1458.133235083796,770.5769629040017,1398.482048721461,856.8364291641888C1338.830862359126,943.0958954243758,1259.6257716284797,1047.8006954181863,1180.0928818259904,1060.556797561122C1100.559992023501,1073.3128997040578,1012.6005044310695,953.1710871926593,921.2847099065253,933.3730420218033C829.9689153819812,913.5749968509472,694.2627673738491,982.419905624323,632.1981146787255,941.7685265359855C570.1334619836018,901.1171474476481,545.6278063086622,777.6498289467038,548.8967937357837,689.4647674917787C552.1657811629052,601.2797060368537,630.7618190842973,494.1970401443959,651.8120392414542,412.65815780643516C672.8622593986111,331.1192754684744,631.4526695678801,264.45054259633525,675.1981146787252,200.23147346401447C718.9435597895704,136.0124043316937,827.8022487153144,40.9751215166998,914.2847099065252,27.343743012510345C1000.7671710977361,13.712364508320888,1112.197316021016,56.96363635312832,1194.0928818259902,118.44320243887773C1275.9884476309644,179.92276852462714,1348.3402517073687,325.4616732668198,1405.6581047363702,396.2211395270068C1462.9759577653717,466.98060578719384,1539.1960093358182,466.23078506046954,1538,542.9999999999999C1536.8039906641818,619.7692149395302,1458.133235083796,770.5769629040017,1398.482048721461,856.8364291641888" fill="#1e92d2"/></svg>